<?xml version="1.0" encoding="UTF-8"?><svg id="_イヤー_4" xmlns="http://www.w3.org/2000/svg" viewBox="0 0 500 500"><defs><style>.cls-1,.cls-2,.cls-3,.cls-4,.cls-5,.cls-6{stroke:#000;stroke-miterlimit:10;}.cls-7{fill:#ffcccb;}.cls-2{fill:#fff;}.cls-3{fill:#9e9e9e;}.cls-4{fill:#393939;}.cls-5{fill:#f9f9f9;}.cls-6{fill:none;}</style></defs><line class="cls-6" x1="440.57" y1="172.44" x2="440.56" y2="172.44"/><rect class="cls-7" width="500" height="500"/><g><path class="cls-4" d="M370.07,62.22c-.87,2.58-3.02,7.41-8.19,13.5-.55,.64-1.13,1.26-1.75,1.84,5.49,.6,4.49,2.6,4.49,2.6,0,0-3.66,6.71-11.43,15.91,1.84,.31,3.15,.7,4.09,1.09,1.49,.62,2.01,2.46,1.03,3.75-2.81,3.72-9.9,12.91-18.76,22.9,5.22-2.1,8.1-2,9.6-1.53,.87,.27,1.26,1.28,.8,2.06-1.68,2.86-6.65,10.65-16.32,20.93,10.99-2.11,9.37,1.89,9.37,1.89,0,0-2.98,8.16-29.26,26.73,2.18-.55,3.79-.62,4.98-.47,1.95,.26,3.14,2.32,2.39,4.13-.6,1.46-1.62,3.42-3.3,5.43-8.54,4.2-14.92,8.26-17.41,11.73-14.56,20.36-19.18,39.91-28.35,48.08-.72-.4-1.55-.63-2.43-.63-.81,0-1.58,.19-2.25,.54-.68-.57-1.5-1.17-2.51-1.8-.84-.52-1.56-1.22-2.11-2.04l-2.54-3.82c-.39-.59-.72-1.22-.96-1.87-.17-.44-.33-.88-.49-1.31-.84-2.21-1.69-4.38-2.53-6.52-1.58-3.95-3.16-7.79-4.77-11.54l3.66-63.01c.39-6.8,2.1-13.45,5.03-19.59,4.55-9.52,12.87-23.96,26.47-38.04,24.95-25.83,67.24-53.71,81.48-46.51,3.08,1.56,3.82,5.64,1.68,8.35-.74,.94-1.76,1.99-3.16,3.16,0,0-.28,.24-.81,.68,.13,.02,1.35,.17,2.72,.55,1.23,.34,1.95,1.62,1.54,2.83Z"/><path class="cls-5" d="M266.53,251.09c-4.33,3.27-10.37,5.7-17.8,7.44-1.02,.24-2.08,.47-3.16,.68-1.69,.34-3.44,.64-5.26,.92-1.15,.17-2.32,.34-3.52,.48-5,.64-10.42,1.07-16.2,1.32,5.03-3.77,3.03-4.77,3.03-4.77,0,0-8,4-23-4,0,0-2,5.99,6.77,8.94-22.5-.8-47.51-9.07-69.81-23.75-11.37-7.47-22.03-16.62-31.3-27.3,2.02-11.14,7.71-21.93,15.34-31.89,.49-.64,.98-1.27,1.5-1.91,0,0-19.5-20.09-45.01-24.02l-.13-.08c.56-.89,1.4-1.54,2.48-1.7,16.2-2.45,50.81,7.24,56.87,10.55h.02c3.33-3.11,6.77-6.07,10.24-8.88-2.93-4.08-12.19-39.95,3.76-64.73,.75-1.16,1.99-1.82,3.27-1.86-.98,16.28,21.95,45.3,22.92,46.53,.02,.03,.03,.04,.03,.04,.02-.01,.03-.02,.05-.03,11.15-5.98,19.56-8.73,21.19-7.07,16.74,19.96,35.74,48.4,52.65,87.8,1.61,3.75,3.19,7.59,4.77,11.54,.84,2.14,1.69,4.31,2.53,6.52,.16,.43,.32,.87,.49,1.31,.24,.65,.57,1.28,.96,1.87l2.54,3.82c.55,.82,1.27,1.52,2.11,2.04,1.01,.63,1.83,1.23,2.51,1.8-1.63,.82-2.75,2.51-2.75,4.46,0,1.59,.75,3.01,1.91,3.93Z"/><path class="cls-2" d="M123.12,177.25c-.52,.64-1.01,1.27-1.5,1.91-7.63,9.96-13.32,20.75-15.34,31.89-13.05-15.03-23.33-33.09-28.92-53.8-.37-1.38-.12-2.94,.62-4.1l.13,.08c25.51,3.93,45.01,24.02,45.01,24.02Z"/><path class="cls-2" d="M198.81,126c-1.63-1.66-10.04,1.09-21.19,7.07-.02,.01-.03,.02-.05,.03,0,0-.01-.01-.03-.04-.97-1.23-23.9-30.25-22.92-46.53,.78-.03,1.57,.17,2.28,.63,6.67,4.33,22.81,16.05,41.91,38.84Z"/><path class="cls-1" d="M220.59,261.93h0c-2.58,.11-5.24,.19-7.96,.23-1.73,.03-3.47,.01-5.23-.06-8.77-2.95-6.77-8.94-6.77-8.94,15,8,23,4,23,4,0,0,2,1-3.03,4.77Z"/><path class="cls-1" d="M274.62,247.16c0,2.76-2.24,5-5,5-1.17,0-2.24-.4-3.09-1.07-1.16-.92-1.91-2.34-1.91-3.93,0-1.95,1.12-3.64,2.75-4.46,.67-.35,1.44-.54,2.25-.54,.88,0,1.71,.23,2.43,.63,1.53,.86,2.57,2.49,2.57,4.37Z"/><path class="cls-6" d="M236.79,260.61c-.05-.15-.11-.3-.17-.45"/><path class="cls-6" d="M232.63,286.2s-.01-.03-.01-.04"/><path class="cls-6" d="M200.63,364.18s-.01-.02-.01-.02"/><path class="cls-5" d="M197.56,388.26l.06-.1-1.76-23.75c1.54,1.26,3.01,2.86,3.76,4.75,0,0,1.99-1.99,1.01-4.98,.24,.35,4.08,5.98,6.99,5.98,0,0,1.07-2.14,1.96-5.17,1.96-1.16,6.04,20.17,10.12,33.56-7.23-2.48-14.67-5.82-22.14-10.29Z"/><path class="cls-4" d="M237.62,292.16s-2.99,0-4.99-5.96c.17,1.04,3.92,24.12,.99,30.96,0,0-1,1.22-1-1.2,0-1.2-1-.8-1-.8-3,5-2,21-2,21-1-5-4-6-4-6,1,11-10,26-10,26,1,6-3,8-3,8,2-4-2-9-2-9,.48,3.38-.2,7-1.04,9.83-.89,3.03-1.96,5.17-1.96,5.17-2.91,0-6.75-5.63-6.99-5.98,.98,2.99-1.01,4.98-1.01,4.98-.75-1.89-2.22-3.49-3.76-4.75-2.53-2.09-5.24-3.25-5.24-3.25-2,0-2,2-2,2-1-5-16-22-16-22,0,3,1.02,7.51,1.02,7.51-6.24-4.93-11.39-17.54-14.91-28.52-.76-2.37-1.44-4.67-2.04-6.8h0c-1.98-7.02-3.07-12.19-3.07-12.19-2,7-2,13-2,13-12-22-11-44-11-44-5.44,10.88-5.13,13.54-5.02,13.94-.45-.88-5.66-12.36,1.97-45.74h.01c22.3,14.67,47.31,22.94,69.81,23.74,1.76,.07,3.5,.09,5.23,.06,2.72-.04,5.38-.12,7.96-.23h0c5.78-.25,11.2-.68,16.2-1.32,5.73,14.77,.83,31.55,.83,31.55Z"/><path class="cls-6" d="M135.62,284.16s-.01-.02-.02-.06"/><path class="cls-5" d="M274.69,443.13c-3.47,3.49-7.78,6.02-12.54,7.25-20.2,5.23-74.3,12.47-144.44-27.83,3.44-.97,4.99-2.76,5.61-3.74,.27-.43,.38-.94,.29-1.43-.62-3.35-4.99-4.22-4.99-4.22,4-.67,4.89-2.22,5.04-3.19,.07-.44-.12-.9-.45-1.2-2.94-2.7-6.59-3.61-6.59-3.61,2.45-1.22,4.15-3.2,5.1-4.54,.51-.73,.19-1.75-.65-2.06-4.25-1.6-7.45-2.4-7.45-2.4,1.71-1.71,2.58-3.55,3.02-4.81,.29-.85-.3-1.75-1.19-1.81-1.1-.08-2.72-.09-4.76,.21,11.89-13.17,31.58-23.26,56.72-16.44,7.89,2.14,16.32,5.95,25.21,11.85,1.65,1.09,3.29,2.13,4.94,3.1,7.47,4.47,14.91,7.81,22.14,10.29-4.08-13.39-8.16-34.72-10.12-33.56,.84-2.83,1.52-6.45,1.04-9.83,0,0,4,5,2,9,0,0,4-2,3-8,0,0,11-15,10-26,0,0,3,1,4,6,0,0-1-16,2-21,0,0,1-.4,1,.8,0,2.42,1,1.2,1,1.2,2.93-6.84-.82-29.92-.99-30.96,2,5.96,4.99,5.96,4.99,5.96,0,0,4.9-16.78-.83-31.55,1.2-.14,2.37-.31,3.52-.48,1.82-.28,3.57-.58,5.26-.92,1.08-.21,2.14-.44,3.16-.68,6.35,2.79,24.51,20.46,38.82,45.73,21.23,37.47,33.98,91.67-12.86,138.87Z"/><path class="cls-4" d="M118.62,413.16s4.37,.87,4.99,4.22c.09,.49-.02,1-.29,1.43-.62,.98-2.17,2.77-5.61,3.74-1.36-.78-2.72-1.57-4.09-2.39,0,0-4-2-15,1-2.35-7.26,2.14-20.41,12.06-31.41h.01c2.04-.3,3.66-.29,4.76-.21,.89,.06,1.48,.96,1.19,1.81-.44,1.26-1.31,3.1-3.02,4.81,0,0,3.2,.8,7.45,2.4,.84,.31,1.16,1.33,.65,2.06-.95,1.34-2.65,3.32-5.1,4.54,0,0,3.65,.91,6.59,3.61,.33,.3,.52,.76,.45,1.2-.15,.97-1.04,2.52-5.04,3.19Z"/><path class="cls-6" d="M219.7,398.55c9.32,3.21,18.28,4.97,26.41,5.82,23.42,2.47,40.08-2.54,39.51-2.21"/><path class="cls-6" d="M248.73,258.53c-.42-.2-.8-.32-1.11-.37"/><g><line class="cls-6" x1="251.46" y1="213.82" x2="251.46" y2="213.8"/><path class="cls-6" d="M365.81,58.84h-.01c-4.5,3.7-26.74,21.7-48.18,33.32"/><path class="cls-6" d="M365.81,58.84h-.01"/><path class="cls-6" d="M311.57,111.75c20.89-10.93,42.5-28.97,47.81-33.52,.26-.22,.51-.44,.75-.67"/><path class="cls-6" d="M305.62,133.16c22.52-10.98,38.1-25.89,47.56-37.09h.01"/><path class="cls-6" d="M302.62,156.16c11.8-5.9,25.77-19.77,36.93-32.35"/><line class="cls-6" x1="353.19" y1="96.07" x2="353.18" y2="96.07"/><path class="cls-6" d="M333.63,145.27c-8.95,9.48-21.91,21.09-40.01,32.89"/></g><path class="cls-4" d="M422.62,158.16c-.95,2.66-5.45,5.95-14.29,9.73,8.55-1.69,9.44,1.16,9.4,2.56-.01,.4-.16,.79-.43,1.1-1.08,1.24-5.07,5.37-14.61,10.55,12.93-3.94,10.93,1.06,10.93,1.06-.81,4.57-7.97,13.34-21.71,21.48,3.57-.3,4.91,1.54,5.41,2.97,.32,.92,.13,1.93-.51,2.66-1.97,2.25-8.34,7.91-27.76,16.79,5.85-1.16,8.58-.49,9.82,.2,.68,.38,1.02,1.16,.88,1.93-.63,3.64-4.73,9.95-20.69,16.44,.72-.06,1.33-.06,1.85-.02,1.96,.16,2.31,2.21,1.45,3.98-1.27,2.62-6.12,7.5-15.52,11.66-.26,.11-.51,.22-.77,.33,2.73,.66,4.02,2.05,4.6,3.45,.78,1.92-.05,4.13-1.82,5.21-4.95,3.03-14.14,8.06-32.25,12.25,5.55,.26,10.53,7.74-8.92,9.76,3.39,1.23,6.63,9.49-20.13,12.01-14.31-25.27-32.47-42.94-38.82-45.73,7.43-1.74,13.47-4.17,17.8-7.44,.85,.67,1.92,1.07,3.09,1.07,2.76,0,5-2.24,5-5,0-1.88-1.04-3.51-2.57-4.37,9.17-8.17,13.79-27.72,28.35-48.08,2.49-3.47,8.87-7.53,17.41-11.73,27.69-13.62,78.06-28.7,91.45-29.98,10.94-1.04,14.45,2.13,13.36,5.16Z"/><path class="cls-6" d="M364.69,181.35c20.05-4.92,34.28-9.46,43.64-13.46"/><path class="cls-6" d="M358.81,197.93c21-5.17,34.89-10.96,43.87-15.83h.01"/><path class="cls-6" d="M391.91,204.64c-10.71,6.34-25.44,12.28-44.29,15.52"/><path class="cls-6" d="M369.05,227.06c-8.84,4.04-20.37,8.75-35.43,14.1"/><path class="cls-6" d="M359.06,245.63c-6.96,2.83-16.18,5.69-28.35,8.38"/><path class="cls-6" d="M162.51,273.8c1.05,24.51,10.39,38.8,11.13,42.38"/><path class="cls-6" d="M214.64,278.23c6.98,14.93,1.98,36.93,1.98,36.93"/><path class="cls-6" d="M194.58,308.04c8.04,13.12,2.16,29.56,2.16,29.56"/><path class="cls-6" d="M263.62,220.16c-11,6-9,9-9,9"/><path class="cls-6" d="M266.62,226.16c-11,6-9,9-9,9"/><path class="cls-6" d="M244.53,247.16c-4.91,5-4.25,16.45-4.25,16.45"/><path class="cls-6" d="M249.53,249.16c-4.91,5-4.25,16.45-4.25,16.45"/><path class="cls-6" d="M207.42,262.11s-.02-.01-.03-.01"/><path class="cls-6" d="M251.46,290.57c13.16,31.59-5.35,113.8-5.35,113.8"/><path class="cls-6" d="M346.07,261.58c-6.78,2.9-15.81,5.39-27.45,6.46"/><path class="cls-6" d="M346.81,261.25c.06,0,.12,0,.17,0"/><path class="cls-5" d="M197.62,388.16l-.06,.1c-1.65-.97-3.29-2.01-4.94-3.1-8.89-5.9-17.32-9.71-25.21-11.85-12.65-19.93-10.76-59.11-10.72-59.96,.6,2.13,1.28,4.43,2.04,6.8,3.52,10.98,8.67,23.59,14.91,28.52,0,0-1.02-4.51-1.02-7.51,0,0,15,17,16,22,0,0,0-2,2-2,0,0,2.71,1.16,5.24,3.25l1.76,23.75Z"/><path class="cls-6" d="M313.74,173.89c-5.59,3.95-12.23,8.37-20.12,13.28"/><line class="cls-6" x1="333.63" y1="145.27" x2="333.62" y2="145.27"/><line class="cls-6" x1="123.12" y1="177.25" x2="123.12" y2="177.24"/><path class="cls-3" d="M214.74,203.48c7.48,12.7,14.73,5.07,17.61-.24,.67-1.24-.47-2.57-1.84-2.25-5.93,1.36-15.4,5.37-20.89-.09"/><path class="cls-3" d="M170.78,222.45c7.26,12.83,14.64,5.32,17.61,.07,.69-1.22-.42-2.58-1.8-2.29-5.95,1.26-15.49,5.1-20.88-.45"/></g></svg>